<?xml version="1.0" encoding="utf-8"?>
<!DOCTYPE svg PUBLIC "-//W3C//DTD SVG 1.1//EN" "http://www.w3.org/Graphics/SVG/1.1/DTD/svg11.dtd">
<svg version="1.1" xmlns="http://www.w3.org/2000/svg" xmlns:xlink="http://www.w3.org/1999/xlink" x="0px" y="0px"
	 width="368px" height="112.664px" viewBox="0 2.668 368 112.664" enable-background="new 0 2.668 368 112.664"
	 xml:space="preserve">
<g>
	<path fill="#050006" d="M72.321,26.529c0-2.214,1.722-3.936,3.936-3.936v-7.38c0-3.444-0.369-3.813-1.599-4.674
		c-1.599-0.984-2.46-0.984-2.46-3.075c0-2.214,0.492-3.69,2.583-3.69c2.337,0,5.781,0.246,9.348,0.246
		c3.444,0,7.011-0.246,10.455-0.246c3.075,0,3.936,0.123,3.936,3.198c0,3.198-1.23,3.198-3.444,3.567
		c-1.107,0.246-2.214,0.861-2.214,6.027v15.62c0,5.781,2.214,10.208,9.471,10.208c8.241,0,8.979-3.566,8.979-17.219
		c0-10.455-0.369-14.267-3.075-14.513c-2.46-0.492-3.444-1.845-3.444-3.567c0-3.075,0.984-3.444,2.829-3.444
		c2.214,0,4.428,0.246,6.519,0.246c2.214,0,4.428-0.246,6.519-0.246c2.46,0,3.813,0.246,3.813,3.075
		c0,3.321-1.107,3.443-2.583,3.689c-0.738,0.123-1.845,0.615-1.845,4.428c0,2.46,0,5.043,0,7.503
		c2.091,0.123,3.812,1.845,3.812,3.936c0,2.214-1.722,3.936-3.936,3.936c-0.123,2.583-0.246,5.166-0.492,7.749
		c-0.984,11.562-10.701,13.775-21.278,13.775c-13.898,0.246-21.893-3.812-21.893-18.941v-2.337
		C74.043,30.465,72.321,28.743,72.321,26.529"/>
	<path fill="#050006" d="M141.321,26.529c0-2.214,1.722-3.936,3.936-3.936c-0.123-3.321-0.246-6.519-0.492-9.225
		c-0.369-4.182-3.444-1.845-3.444-6.273c0-3.075,1.599-3.321,4.305-3.321c2.583,0,5.166,0.246,7.749,0.246
		c2.583,0,5.166-0.246,7.749-0.246c2.46,0,4.305,0.369,4.305,3.444c0,4.305-3.075,1.968-3.075,6.15
		c-0.246,2.706-0.369,5.904-0.492,9.225c2.091,0,3.813,1.845,3.813,3.936c0,2.214-1.722,3.936-3.936,3.936
		c0,3.69,0.123,7.379,0.369,10.332c0.492,5.658,5.043,1.353,5.043,6.642c0,2.829-0.861,3.567-2.706,3.567
		c-3.321,0-6.642-0.246-9.962-0.246s-6.642,0.246-9.963,0.246c-2.337,0-3.566-0.369-3.566-3.69c0-4.92,3.198-0.492,3.689-6.642
		c0.246-2.952,0.369-6.519,0.369-10.332C143.166,30.465,141.321,28.743,141.321,26.529"/>
	<path fill="#050006" d="M183.139,26.529c0-2.214,1.722-3.936,3.935-3.936h0.246c0.123-2.337,0.123-4.428,0.123-6.765
		c0-3.321-0.369-4.674-1.476-5.289c-1.476-0.738-3.567-0.984-3.567-3.321c0-1.845,0.123-3.444,2.091-3.444
		c2.459,0,5.043,0.246,7.502,0.246c2.584,0,5.166-0.246,7.626-0.246c1.229,0,1.968,1.23,3.075,3.444
		c0.984,1.968,10.823,21.155,11.93,21.155c1.6,0,9.963-18.818,11.07-20.909c0.984-1.968,1.354-3.69,2.951-3.69
		c2.461,0,4.92,0.246,7.504,0.246c2.459,0,4.919-0.246,7.502-0.246c1.23,0,2.214,0.246,2.214,2.706c0,4.059-1.599,2.829-3.444,4.059
		c-0.737,0.492-0.983,1.845-0.983,3.444c0,2.337,0.123,5.289,0.246,8.61c2.214,0,3.936,1.845,3.936,3.936s-1.476,3.69-3.444,3.936
		c0.123,2.091,0.369,4.182,0.492,6.272c0.369,4.059,0.369,7.134,1.723,7.503c2.091,0.492,2.705,0.738,2.705,3.567
		c0,2.706-0.369,3.198-3.074,3.198c-3.32,0-6.642-0.246-9.963-0.246c-3.32,0-6.642,0.246-9.963,0.246
		c-2.459,0-2.459-1.968-2.459-3.444c0-1.107,0.369-2.091,1.599-2.583c2.583-0.861,3.075-1.23,3.198-3.69
		c0.123-3.198,0.246-6.396,0.246-9.716c0-2.337-0.246-4.305-1.107-4.305c-0.615,0-1.969,1.599-3.32,4.182l-7.872,15.128
		c-1.968,3.69-2.829,4.674-4.797,4.674c-1.476,0-2.46-1.722-3.567-3.69l-8.24-15.62c-1.354-2.583-2.214-4.182-2.706-4.182
		c-0.86,0-0.86,1.845-0.86,2.952c-0.246,3.075-0.123,6.149-0.123,9.347c0,1.968,0.246,4.305,3.074,4.551
		c1.477,0.123,2.337,0.861,2.337,3.075c0,2.091-0.491,3.321-2.583,3.321c-2.213,0-4.551-0.246-6.887-0.246
		c-2.215,0-4.551,0.246-6.888,0.246c-1.599,0-2.337-0.984-2.337-2.706c0-2.829,1.107-3.444,2.583-4.059
		c2.337-0.984,2.583-6.519,3.075-13.775C184.738,30.342,183.139,28.62,183.139,26.529"/>
	<path fill="#050006" d="M294.818,21.855v12.423c0,2.091-0.369,2.706-2.829,2.706c-1.599,0-2.337-0.861-2.829-2.214
		c-1.353-4.674-2.459-5.166-5.043-5.166l0.369,9.593c0.123,2.583,1.969,3.69,4.059,3.69c13.652,0,11.439-9.348,15.498-9.348
		c1.845,0,2.705,0.984,2.705,3.321c0,0.984-0.123,1.845-0.246,2.829l-0.737,8.364c-0.369,2.583-0.983,2.952-3.444,2.952
		c-5.78,0-11.684-0.246-17.465-0.246c-5.781,0.123-11.685,0.246-18.695,0.246c-2.459,0-3.074-0.984-3.074-2.829
		c0-3.198,1.106-3.198,3.074-3.936c1.354-0.615,1.477-2.706,1.477-13.775c-2.215,0-4.059-1.845-4.059-3.936
		c0-2.214,1.721-3.936,3.936-3.936c0-9.594-0.123-11.438-1.354-12.054c-1.968-0.738-3.074-0.738-3.074-3.936
		c0-1.845,0.615-2.829,3.074-2.829c5.904,0,11.808,0.246,17.711,0.246c5.904,0,11.809-0.246,17.712-0.246
		c2.829,0,3.198,0.861,3.198,5.166v6.026c0,4.551-0.123,4.92-2.461,4.92c-1.476,0-2.459-0.123-2.705-1.845
		c-1.107-5.781-6.396-6.642-11.316-6.642c-3.936,0-4.551,0.615-4.551,6.027c0,3.321,0.246,4.428,2.215,4.428
		c4.428,0,1.599-4.551,6.149-4.551C294.326,17.182,294.818,17.797,294.818,21.855"/>
	<path fill="#050006" d="M333.192,26.529c0-2.214,1.722-3.936,3.937-3.936V17.92c0-3.198-0.246-6.15-3.075-6.15
		c-5.412,0-4.674,8.855-8.241,8.855c-2.459,0-2.828-0.615-2.828-4.305c0-2.337,0.123-8.855,0.123-10.701
		c0-1.353,1.106-1.845,3.443-1.845c6.396,0,12.791,0.246,18.941,0.246c6.149,0,12.545-0.246,18.941-0.246
		c2.336,0,3.443,0.492,3.443,1.845c0,1.845,0.123,8.364,0.123,10.701c0,3.69-0.369,4.305-2.829,4.305
		c-3.566,0-2.829-8.855-8.24-8.855c-2.829,0-2.952,3.075-2.952,6.15v4.674c2.091,0,3.812,1.845,3.812,3.936
		c0,2.214-1.722,3.936-3.812,3.936c0,4.428,0,7.995,0.492,10.332c1.354,5.412,5.412,1.476,5.412,7.134
		c0,3.198-1.6,3.198-4.674,3.198c-3.567,0-7.38-0.246-9.717-0.246s-6.15,0.246-9.717,0.246c-3.074,0-4.674,0-4.674-3.198
		c0-5.658,4.059-1.599,5.412-7.134c0.615-2.214,0.738-5.904,0.738-10.332C335.037,30.465,333.192,28.743,333.192,26.529"/>
	<path fill="#050006" d="M73.674,91.84c0-2.092,1.599-3.689,3.69-3.689c0-7.504-0.246-10.332-2.214-11.07
		c-0.984-0.369-1.599-0.861-1.599-2.951c0-2.092,0.492-3.321,2.46-3.321c4.182,0,6.765,0.246,9.471,0.246
		c2.706,0,5.289-0.246,8.609-0.246c2.091,0,3.321,0.123,3.321,3.075c0,4.305-4.674,0.246-4.674,7.748
		c0,5.166,0.246,5.904,3.075,5.904h8.486c2.952,0,3.075-0.738,3.075-5.904c0-7.256-3.321-4.059-3.321-7.748
		c0-2.215,1.229-3.075,3.689-3.075c1.968,0,4.797,0.246,7.749,0.246c2.952,0,5.781-0.246,8.486-0.246c1.968,0,2.46,1.229,2.46,3.321
		c0,2.09-0.615,2.582-1.599,2.951c-1.968,0.738-2.214,3.566-2.214,11.07c1.968,0,3.567,1.721,3.567,3.689
		c0,1.968-1.599,3.689-3.567,3.689c0,7.38,0.246,11.315,2.46,12.668c0.861,0.492,1.845,0.615,1.845,3.198
		c0,2.091-0.369,3.075-2.214,3.075c-3.075,0-6.15-0.246-9.225-0.246c-3.075,0-6.15,0.246-8.61,0.246
		c-1.968,0-2.706-0.738-2.706-3.566c0-1.354,0.738-2.092,1.599-2.707c1.353-1.106,1.722-1.721,1.722-8.979
		c0-3.443-0.492-3.936-1.968-3.936H95.075c-1.476,0-2.091,0.492-2.091,3.936c0,7.749,1.23,8.364,3.198,9.102
		c2.214,0.861,2.583,1.107,2.583,3.321s-0.492,2.829-2.583,2.829c-2.829,0-6.149-0.246-9.593-0.246s-6.765,0.246-10.947,0.246
		c-1.968,0-2.214-0.984-2.214-3.075c0-2.583,0.984-2.706,1.845-3.198c2.214-1.353,2.459-5.411,2.459-12.668
		C75.396,95.529,73.674,93.931,73.674,91.84"/>
	<path fill="#050006" d="M274.155,91.84c0-1.969,1.599-3.689,3.689-3.689v-4.306c0-2.952-0.245-5.78-2.829-5.78
		c-5.043,0-4.305,8.24-7.625,8.24c-2.337,0-2.706-0.615-2.706-4.059c0-2.091,0.123-8.117,0.123-9.84c0-1.23,0.983-1.599,3.198-1.599
		c5.903,0,11.684,0.246,17.465,0.246c5.658,0,11.562-0.246,17.465-0.246c2.092,0,3.198,0.491,3.198,1.599
		c0,1.723,0.123,7.749,0.123,9.84c0,3.443-0.369,4.059-2.706,4.059c-3.32,0-2.706-8.24-7.625-8.24c-2.707,0-2.707,2.828-2.707,5.78
		v4.306c1.969,0,3.69,1.598,3.69,3.689c0,2.091-1.599,3.689-3.69,3.689c0,4.059,0,7.38,0.492,9.471
		c1.23,5.043,5.043,1.354,5.043,6.519c0,2.952-1.476,2.952-4.305,2.952c-3.32,0-6.765-0.246-8.855-0.246s-5.658,0.246-8.855,0.246
		c-2.829,0-4.305,0-4.305-2.952c0-5.165,3.812-1.476,5.043-6.519c0.614-2.091,0.614-5.412,0.614-9.471
		C275.754,95.529,274.155,93.931,274.155,91.84"/>
	<path fill="#050006" d="M26.69,91.84c0-1.846,1.353-3.444,3.198-3.689c-1.23-6.15-4.674-10.332-9.102-10.332
		c-1.23,0-1.599,2.337-1.599,8.732v1.6c1.968,0.123,3.444,1.721,3.444,3.689c0,1.968-1.599,3.566-3.444,3.689v3.566
		c0,6.15,1.107,7.872,3.444,7.872c5.781,0,7.503-6.272,7.749-11.438C28.289,95.529,26.69,93.931,26.69,91.84 M0.246,91.84
		c0-2.092,1.599-3.689,3.69-3.689V83.6c0-4.551-0.615-5.658-1.968-6.52c-0.738-0.369-1.599-0.246-1.599-2.091
		c0-2.46,0-4.182,2.214-4.182c3.69,0,7.502,0.246,11.192,0.246s7.503-0.246,11.192-0.246c11.438,0,20.048,6.396,21.647,17.343
		c1.968,0,3.567,1.721,3.567,3.689c0,1.968-1.599,3.566-3.567,3.689c-1.353,11.562-8.609,18.941-21.278,18.941
		c-3.936,0-7.995-0.246-11.931-0.246c-3.936,0-7.995,0.246-11.93,0.246C0,114.471,0,112.503,0,111.396
		c0-2.214,0.369-2.46,2.091-3.198c1.107-0.491,1.722-1.475,1.722-6.271v-6.396C1.968,95.529,0.246,93.931,0.246,91.84"/>
	<path fill="#050006" d="M224.465,82.246v2.828c0,2.707,0.615,3.813,1.6,3.813c3.074,0,4.674-2.214,4.674-5.534
		c0-2.707-1.846-5.412-4.305-5.412C225.326,78.064,224.465,78.926,224.465,82.246 M209.214,88.15v-7.012
		c0-3.566-0.983-4.182-1.968-4.428c-0.738-0.246-1.723-0.369-1.723-2.459c0-3.321,1.107-3.444,3.321-3.444
		c3.69,0,7.38,0.246,10.946,0.246c3.69,0,7.38-0.246,10.947-0.246c9.84,0,15.005,5.411,15.005,12.546
		c0,4.305-2.583,8.486-6.765,9.962l9.963,11.931c1.107,1.354,2.214,1.476,3.074,1.722c0.861,0.246,1.354,0.492,1.354,1.968
		c0,3.566-2.214,5.412-5.781,5.412c-1.722,0-3.566-0.246-5.412-0.246c-1.844,0-3.566,0.246-5.411,0.246
		c-1.599,0-2.46-1.968-2.952-3.197l-5.166-10.947c-1.475-3.197-1.967-4.305-3.074-4.305c-1.354,0-1.354,2.46-1.354,5.289
		c0,2.091,0,6.642,3.075,7.01c1.968,0.246,2.46,1.846,2.46,3.444c0,2.46-0.369,2.706-2.951,2.706c-3.075,0-6.027-0.246-9.102-0.246
		c-3.076,0-6.027,0.246-9.102,0.246c-2.707,0-3.321-0.738-3.321-3.443c0-1.477,0.491-1.969,1.722-2.83
		c1.723-1.106,1.845-7.379,1.845-12.668c-2.091,0-3.689-1.599-3.689-3.689C205.155,89.625,207.246,88.15,209.214,88.15
		L209.214,88.15z"/>
	<path fill="#050006" d="M325.074,92.455c0-2.338,1.846-4.305,4.183-4.305l5.78-13.652c1.846-4.429,2.215-4.552,6.889-4.552
		s5.165,0.123,6.887,4.552l6.027,13.652h0.123c2.336,0,4.182,1.844,4.182,4.305c0,1.229-0.492,2.213-1.23,2.951l3.69,8.486
		c0.491,1.23,1.968,3.198,3.812,4.305c0.983,0.615,1.599,0.738,1.599,2.461c0,2.828-0.86,3.812-4.428,3.812
		c-2.213,0-5.289-0.246-9.348-0.246s-6.764,0.246-9.348,0.246c-1.845,0-2.828-1.6-2.828-3.197c0-1.846,0.369-2.092,1.599-3.076
		c1.229-0.983,1.968-1.353,1.968-2.951c0-0.984-0.615-1.968-1.845-1.968h-9.471c-1.353,0-2.091,1.106-2.091,2.829
		c0,1.229,0.492,1.599,2.214,2.09c1.599,0.492,1.968,0.615,1.968,3.076c0,2.09-0.984,3.197-3.689,3.197
		c-1.969,0-4.059-0.246-6.027-0.246c-2.09,0-4.059,0.246-6.149,0.246s-2.706-0.615-2.706-2.952c0-1.845,0.492-2.829,1.846-3.321
		c2.336-0.86,3.197-1.967,4.305-4.674l3.32-8.117C325.689,94.791,325.074,93.685,325.074,92.455 M334.299,95.898h7.258
		c-0.615-2.706-2.092-7.625-3.567-7.625C336.514,88.396,334.914,93.192,334.299,95.898"/>
	<path fill="#050006" d="M166.658,91.84c0-1.969,1.476-3.566,3.444-3.689c-0.615-8.487-3.075-10.455-4.92-10.578
		c-3.075-0.123-5.289,1.968-5.781,9.594v0.984c1.968,0.123,3.567,1.721,3.567,3.689c0,1.968-1.599,3.566-3.567,3.689
		c0.492,9.963,3.075,12.054,5.289,12.177c2.706,0.123,5.042-1.968,5.412-9.594c0-0.86,0.123-1.722,0.123-2.583
		C168.257,95.529,166.658,93.808,166.658,91.84 M186.583,88.15c1.968,0,3.567,1.598,3.567,3.689c0,1.968-1.477,3.566-3.444,3.689
		c-1.106,11.808-8.733,19.803-21.893,19.803c-13.161,0-20.909-7.995-21.893-19.803c-2.091,0-3.69-1.599-3.69-3.689
		c0-2.092,1.599-3.689,3.69-3.689h0.246c1.599-10.947,9.102-18.204,21.77-18.204C177.358,69.946,184.984,77.203,186.583,88.15"/>
	<path fill="#050006" d="M21.77,22.471c2.091,0.123,3.813,1.845,3.813,3.936c0,2.214-1.722,3.936-3.813,3.936
		c0.492,10.701,3.444,13.161,5.781,13.283c2.952,0.123,5.412-2.091,5.904-10.455c0-0.984,0.123-1.845,0.123-2.829
		c-2.337,0-4.059-1.845-4.059-3.936c0-2.214,1.722-3.936,3.936-3.936c-0.738-9.225-3.321-11.315-5.289-11.438
		c-3.321-0.123-5.781,2.091-6.273,10.455L21.77,22.471z M51.289,22.471c2.214,0,3.936,1.845,3.936,3.936
		c0,2.091-1.599,3.813-3.69,3.936c-0.861,9.471-5.658,16.727-13.898,19.802c2.583,2.091,12.054-5.658,12.915-6.15
		c3.198-1.845,4.182-2.46,5.535-1.599c1.23,0.738,1.353,2.46,1.353,3.69c0,2.583-1.353,11.315-13.406,11.315
		c-15.128,0-18.572-5.903-27.305-5.903c-3.689,0-5.166,4.059-7.502,4.059c-1.599,0-3.69-1.353-3.69-3.567
		c0-3.567,2.706-4.797,4.305-7.011c-3.444-3.69-5.412-8.609-5.903-14.513C1.722,30.465,0,28.62,0,26.529
		c0-2.214,1.722-3.936,3.936-3.936C5.781,10.54,14.021,2.668,27.674,2.668S49.567,10.54,51.289,22.471"/>
	<path fill="#050006" d="M58.422,90.117c6.027,0,9.717-5.411,9.717-10.946c0-4.919-2.706-7.995-7.626-7.995
		c-3.689,0-7.133,1.846-7.133,6.027c0,6.027,5.412,5.166,5.412,6.642c0,1.599-2.091,2.952-2.091,4.551
		C56.578,89.625,57.438,90.117,58.422,90.117"/>
</g>
</svg>
